<svg xmlns="http://www.w3.org/2000/svg" width="97.904" height="126" viewBox="0 0 97.904 126"><path d="M364.961,294.605a1.846,1.846,0,0,0-1.846,1.846v.711c0,11.141-3.784,20.618-10.942,27.409a1.846,1.846,0,0,0,2.541,2.678c7.911-7.5,12.093-17.908,12.093-30.087v-.711A1.846,1.846,0,0,0,364.961,294.605Z" transform="translate(-279.12 -222.105)" fill="#818080"/><path d="M355.584,84.023a1.846,1.846,0,1,0-2.564,2.656,34.813,34.813,0,0,1,10.742,25.228v16.766a1.846,1.846,0,0,0,3.691,0V111.907A38.479,38.479,0,0,0,355.584,84.023Z" transform="translate(-279.767 -62.955)" fill="#818080"/><path d="M166.436,51.47a34.518,34.518,0,0,1,19.643-6.26h.211a34.894,34.894,0,0,1,17.778,4.841,1.846,1.846,0,1,0,1.881-3.176,38.59,38.59,0,0,0-19.66-5.356h-.228a38.2,38.2,0,0,0-21.74,6.925,1.846,1.846,0,0,0,2.114,3.026Z" transform="translate(-137.337 -31.301)" fill="#818080"/><path d="M107.687,165.569a34.9,34.9,0,0,1-5.395-18.666V119.162a35.523,35.523,0,0,1,8.829-23.441,1.846,1.846,0,1,0-2.774-2.435A39.212,39.212,0,0,0,98.6,119.162V146.9a38.59,38.59,0,0,0,5.965,20.638c.345.547.709,1.092,1.082,1.621a1.846,1.846,0,1,0,3.018-2.125c-.337-.479-.666-.973-.979-1.467Z" transform="translate(-88.384 -69.855)" fill="#818080"/><path d="M172.912,203.01a5.839,5.839,0,0,1-3.234-5.232V169.889a5.988,5.988,0,0,1,5.739-6.057,5.854,5.854,0,0,1,5.96,5.85V192.4a1.846,1.846,0,0,0,3.691,0c0-.025,0-22.677,0-22.717a9.549,9.549,0,0,0-9.728-9.541,9.7,9.7,0,0,0-9.357,9.748v27.889a9.511,9.511,0,0,0,5.263,8.528,12.749,12.749,0,1,1-11.358,22.829,35.192,35.192,0,0,1-7.561-5.109,1.846,1.846,0,0,0-2.446,2.765,38.881,38.881,0,0,0,8.355,5.646,16.441,16.441,0,1,0,14.673-29.426Z" transform="translate(-126.577 -120.73)" fill="#818080"/><path d="M138.191,262.348a1.846,1.846,0,0,0-1.846,1.846v10.64a29.329,29.329,0,0,0,16.314,26.352,1.846,1.846,0,1,0,1.652-3.3,25.658,25.658,0,0,1-14.275-23.051v-10.64A1.845,1.845,0,0,0,138.191,262.348Z" transform="translate(-116.839 -197.786)" fill="#818080"/><path d="M299.565,144.875a1.846,1.846,0,0,0-.089,2.609,15.061,15.061,0,0,1,4.066,10.316v28.689a1.846,1.846,0,0,0,3.691,0V157.8a18.74,18.74,0,0,0-5.06-12.836A1.846,1.846,0,0,0,299.565,144.875Z" transform="translate(-239.45 -108.848)" fill="#818080"/><path d="M202.889,126.793a1.846,1.846,0,0,0,1.113-3.52,18.845,18.845,0,0,0-24.522,18.162v27.889a1.846,1.846,0,0,0,3.691,0V141.436a15.153,15.153,0,0,1,19.718-14.643Z" transform="translate(-149.359 -92.277)" fill="#818080"/><path d="M190.569,342.076a1.846,1.846,0,0,0-.6,2.54,18.877,18.877,0,0,0,7.58,6.939,1.846,1.846,0,1,0,1.663-3.3,15.186,15.186,0,0,1-6.1-5.581A1.846,1.846,0,0,0,190.569,342.076Z" transform="translate(-157.058 -257.686)" fill="#818080"/><path d="M257.963,301.766a1.846,1.846,0,0,0-1.8,3.226,22.164,22.164,0,0,1,10.464,25.722,21.806,21.806,0,0,1-3.06,6.308,1.846,1.846,0,1,0,3.019,2.124,25.479,25.479,0,0,0,3.577-7.374,25.856,25.856,0,0,0-12.205-30Z" transform="translate(-206.459 -227.327)" fill="#818080"/><path d="M189.644,153.279a35.911,35.911,0,0,0,5.594-19.15V108.707a29.849,29.849,0,0,0-8.7-20.871,29.253,29.253,0,0,0-20.749-8.575h-.173a29.694,29.694,0,0,0-29.274,29.8v8.473a1.846,1.846,0,0,0,3.691,0v-8.473a26,26,0,0,1,25.61-26.109h.146a25.791,25.791,0,0,1,25.754,25.755v25.421a32.223,32.223,0,0,1-5.026,17.182,1.846,1.846,0,0,0,3.123,1.968Z" transform="translate(-116.839 -59.755)" fill="#818080"/><path d="M248.5,210.266v9.228a1.846,1.846,0,0,0,3.691,0v-9.228a1.846,1.846,0,0,0-3.691,0Z" transform="translate(-201.394 -157.129)" fill="#818080"/><path d="M106.036,0A49.007,49.007,0,0,0,57.084,48.952v28.1a48.952,48.952,0,1,0,97.9,0v-28.1A49.007,49.007,0,0,0,106.036,0ZM151.3,77.048a45.261,45.261,0,0,1-90.521,0v-28.1a45.261,45.261,0,0,1,90.521,0Z" transform="translate(-57.084 0)" fill="#818080"/></svg>