<svg xmlns="http://www.w3.org/2000/svg" viewBox="0 0 290.29 408.18"><defs><style>.cls-1,.cls-5{fill:#003f9a;}.cls-2{fill:#2871cc;}.cls-3{fill:#8488d8;}.cls-4{fill:#5099f4;}.cls-5{font-size:96.63px;font-family:Ailerons-Regular, Ailerons;}.cls-6{fill:none;stroke:#003f9a;stroke-linecap:round;stroke-width:5px;}</style></defs><title>Asset 2</title><g id="Layer_2" data-name="Layer 2"><g id="Layer_1-2" data-name="Layer 1"><polygon class="cls-1" points="137.5 101.22 195.01 138.6 195.01 39.68 137.78 76.61 137.5 101.22"/><polygon class="cls-2" points="87.52 182.35 87.09 242.82 143.83 282.18 143.83 221.6 87.52 182.35"/><polygon class="cls-3" points="143.83 221.6 143.83 282.18 251.95 205.5 251.95 143.39 143.83 221.6"/><path class="cls-4" d="M88,108.69,47.18,80.63c-9.37-6.24-16.65-11-16.65-11v73l57,39.73Z"/><polygon class="cls-4" points="87.09 243.27 87.09 242.82 30.54 203.59 87.09 243.27"/><polygon class="cls-4" points="30.54 142.63 30.54 203.59 87.09 242.82 87.52 182.35 30.54 142.63"/><path class="cls-3" d="M88,108.69,137.78,76.6,138.65,0,31.11,69.59l16.07,11C64.56,92.19,89.17,108.69,88,108.69Z"/><polygon class="cls-3" points="195.01 39.68 138.65 0 137.78 76.61 195.01 39.68"/><path class="cls-3" d="M47.18,80.63,88,108.69C89.17,108.69,64.56,92.19,47.18,80.63Z"/><text class="cls-5" transform="translate(0 395.72)">verum</text><line class="cls-6" x1="78.23" y1="314.21" x2="97.82" y2="314.21"/></g></g></svg>